<svg width="40" height="40" viewBox="0 0 40 40" fill="none" xmlns="http://www.w3.org/2000/svg">
  <!-- Background circle with gradient -->
  <defs>
    <radialGradient id="backgroundGrad" cx="50%" cy="30%" r="70%">
      <stop offset="0%" style="stop-color:#f1ae7e;stop-opacity:0.3"/>
      <stop offset="100%" style="stop-color:#c1663f;stop-opacity:0.1"/>
    </radialGradient>
    <linearGradient id="chefHatGrad" x1="0%" y1="0%" x2="0%" y2="100%">
      <stop offset="0%" style="stop-color:#ffffff;stop-opacity:0.95"/>
      <stop offset="100%" style="stop-color:#f8f8f8;stop-opacity:0.9"/>
    </linearGradient>
    <linearGradient id="spoonGrad" x1="0%" y1="0%" x2="100%" y2="100%">
      <stop offset="0%" style="stop-color:#e68a54"/>
      <stop offset="100%" style="stop-color:#c1663f"/>
    </linearGradient>
  </defs>
  
  <!-- Background circle -->
  <circle cx="20" cy="20" r="19" fill="url(#backgroundGrad)" stroke="#c1663f" stroke-width="0.5" opacity="0.8"/>
  
  <!-- Chef's hat (AI brain symbolism) -->
  <path d="M12 18 C12 14, 15 12, 20 12 C25 12, 28 14, 28 18 C28 16, 26 15, 24 15 C26 13, 24 11, 20 11 C16 11, 14 13, 16 15 C14 15, 12 16, 12 18 Z" 
        fill="url(#chefHatGrad)" 
        stroke="#e0e0e0" 
        stroke-width="0.5"/>
  
  <!-- Chef hat band -->
  <rect x="12" y="18" width="16" height="2" fill="#f0f0f0" stroke="#d0d0d0" stroke-width="0.3"/>
  
  <!-- AI circuit pattern in hat -->
  <g stroke="#c1663f" stroke-width="0.8" fill="none" opacity="0.6">
    <circle cx="18" cy="15" r="1" fill="#c1663f"/>
    <circle cx="22" cy="15" r="1" fill="#c1663f"/>
    <line x1="19" y1="15" x2="21" y2="15"/>
    <line x1="18" y1="14" x2="18" y2="13"/>
    <line x1="22" y1="14" x2="22" y2="13"/>
  </g>
  
  <!-- Wooden spoon (cookbook element) -->
  <ellipse cx="32" cy="28" rx="2.5" ry="4" fill="url(#spoonGrad)" transform="rotate(25 32 28)"/>
  <rect x="27" y="31" width="8" height="1.5" rx="0.8" fill="url(#spoonGrad)" transform="rotate(25 31 31.5)"/>
  
  <!-- Recipe page/book -->
  <rect x="6" y="26" width="8" height="10" rx="1" fill="#ffffff" stroke="#e68a54" stroke-width="0.8"/>
  <rect x="7" y="28" width="6" height="0.8" rx="0.2" fill="#c1663f" opacity="0.7"/>
  <rect x="7" y="30" width="5" height="0.6" rx="0.2" fill="#c1663f" opacity="0.5"/>
  <rect x="7" y="31.5" width="4" height="0.6" rx="0.2" fill="#c1663f" opacity="0.5"/>
  <rect x="7" y="33" width="6" height="0.6" rx="0.2" fill="#c1663f" opacity="0.5"/>
  
  <!-- Steam/AI emanation -->
  <g stroke="#c1663f" stroke-width="1.2" fill="none" opacity="0.6" stroke-linecap="round">
    <path d="M16 10 Q16 8, 18 8 Q18 6, 16 6"/>
    <path d="M20 9 Q20 7, 22 7 Q22 5, 20 5"/>
    <path d="M24 10 Q24 8, 26 8 Q26 6, 24 6"/>
  </g>
</svg>